<?xml version="1.0" encoding="UTF-8"?><svg xmlns="http://www.w3.org/2000/svg" xmlns:xlink="http://www.w3.org/1999/xlink" viewBox="0 0 61.69 46"><defs><style>.f{fill:#ed3b2b;}.g{fill:#fff;}.h{fill:#1a1a1a;}.i{filter:url(#d);}</style><filter id="d" filterUnits="userSpaceOnUse"><feOffset dx="0" dy="3.04"/><feGaussianBlur result="e" stdDeviation="4.06"/><feFlood flood-color="#282828" flood-opacity=".3"/><feComposite in2="e" operator="in"/><feComposite in="SourceGraphic"/></filter></defs><g id="a"/><g id="b"><g id="c"><g class="i"><g><rect class="f" width="61.69" height="24"/><path class="f" d="M60.17,21.46v23.02H1.52V21.46H60.17m1.52-1.52H0v26.06H61.69V19.94h0Z"/><g><path class="g" d="M13.5,15.64v1.55H6.27v-1.14c.87-.92,1.75-1.82,2.49-2.55,1.7-1.73,2.38-2.8,2.38-4.23,0-1.35-.72-2.23-1.94-2.23-.23,0-.47,.03-.71,.09l-.36,1.35c-.17,.86-.57,1.11-1.01,1.11-.41,0-.72-.22-.89-.56,.18-1.64,1.76-2.52,3.61-2.52,2.27,0,3.31,1.17,3.31,2.83,0,1.45-1.08,2.68-3.79,4.72-.48,.37-1.19,.97-1.93,1.58h6.07Z"/><path class="g" d="M23.39,14.44h-1.7v2.75h-1.79v-2.75h-4.43v-1.04l4.85-6.72h1.37v6.47h1.7v1.29Zm-3.49-1.29v-4.97l-3.6,4.97h3.6Z"/><path class="g" d="M30.86,6.6c-.09,.13-.32,.25-.6,.32V15.87c-.01,.12-.8,.48-1.4,.48h-.26v-1.03h-1.37v1.23c0,.12-.51,.5-1.34,.5h-.29V5.55l1.82,.67h1.02l.8-.86,1.61,1.25Zm-3.63,.04v3.85h1.37v-3.85h-1.37Zm1.37,8.28v-4.01h-1.37v4.01h1.37Zm4.97-5.23v-2.14h-2.73l-.12-.41h2.85v-2.29l2.26,.19c-.01,.21-.14,.35-.54,.41v1.68h1.14l.89-1.16s.99,.79,1.6,1.33c-.05,.16-.2,.23-.41,.23h-3.22v2.14h1.52l.93-1.22s1.05,.82,1.67,1.39c-.04,.16-.2,.23-.41,.23h-8.52l-.12-.41h3.21Zm4.49,1.27s.92,.72,1.45,1.22c-.03,.16-.2,.23-.41,.23h-2v4.13c0,1.16-.27,1.79-2.3,1.96-.04-.51-.14-.89-.39-1.14s-.6-.42-1.4-.56v-.19s1.7,.09,2.05,.09c.26,0,.33-.07,.33-.25v-4.04h-4.88l-.12-.41h5v-1.67l2.18,.19c-.02,.19-.17,.31-.47,.35v1.13h.21l.75-1.04Zm-6.66,1.89c4.14,.97,2.47,3.93,.92,2.65-.06-.88-.56-1.88-1.05-2.56l.14-.09Z"/><path class="g" d="M43.45,9.93v7.92c0,.22-.65,.64-1.43,.64h-.29V5.12l1.78,.75h2.06l.74-.79,1.57,1.16c-.09,.1-.27,.23-.54,.28v3.82c-.01,.1-.83,.4-1.34,.4h-.27v-.81h-2.27Zm0-3.63v1.39h2.27v-1.39h-2.27Zm2.27,3.22v-1.44h-2.27v1.44h2.27Zm9.11-3.25c-.1,.12-.3,.25-.62,.29v9.92c0,1.17-.24,1.85-2.15,2.01-.03-.56-.11-.97-.29-1.22-.21-.25-.5-.44-1.16-.56v-.04c-.27,.13-.75,.29-1.11,.29h-.29v-.85h-2.61v.56c0,.15-.68,.48-1.36,.48h-.23v-6.12l1.64,.66h2.41l.75-.81,1.57,1.16c-.09,.1-.29,.22-.56,.26v4.19h0c.38,.04,1.13,.1,1.34,.1,.24,0,.3-.12,.3-.31v-6.36h-2.35v.28c0,.15-.72,.51-1.42,.51h-.23V5.21l1.7,.66h2.14l.8-.91,1.7,1.3Zm-8.22,5.82v1.57h2.61v-1.57h-2.61Zm2.61,3.62v-1.63h-2.61v1.63h2.61Zm.92-9.4v1.39h2.35v-1.39h-2.35Zm2.35,3.22v-1.44h-2.35v1.44h2.35Z"/></g><g><path class="h" d="M15.65,38.73s1.16,.86,1.88,1.46c-.05,.16-.21,.23-.44,.23H6v.62c0,.13-.54,.56-1.45,.56h-.32v-13.51l1.96,.81h7.94l.98-1.16s1.11,.78,1.82,1.35c-.04,.16-.23,.23-.44,.23H6v4.31h3.21c.17-.38,.3-.78,.42-1.16-.21,.04-.47,.07-.81,.07h-.3v-.95h-2.11l-.11-.42h2.21v-1.41l2.08,.18c-.03,.21-.15,.35-.51,.4v.83h2.09v-1.41l2.06,.18c-.03,.19-.15,.35-.51,.4v.83h.65l.72-.91s.84,.62,1.37,1.1c-.04,.16-.2,.23-.39,.23h-2.35v.59c0,.09-.38,.32-1.29,.32h-.26v-.91h-2.09v.5l1.93,.32c-.04,.16-.17,.23-.57,.23-.15,.34-.32,.66-.51,.98h3.04l.9-1.11s1.04,.76,1.64,1.29c-.04,.16-.21,.23-.42,.23h-5.42c-.29,.41-.6,.81-.93,1.17l.56,.21h2.64l.77-.79,1.63,1.16c-.09,.1-.29,.22-.56,.28v2.71c-.01,.09-.87,.38-1.4,.38h-.29v-.86h-2.98v.63c0,.12-.51,.48-1.37,.48h-.29v-3.06c-.6,.44-1.28,.82-2.02,1.11l-.13-.13c1.16-.78,2.11-1.95,2.74-3.28h-2.95l-.08-.26v6.24H14.6l1.05-1.29Zm-5.56-2.9v2.04h2.98v-2.04h-2.98Z"/><path class="h" d="M32.78,35.94c-.11,.13-.32,.26-.66,.34v4.64c-.01,.12-.87,.5-1.51,.5h-.3v-1.2h-5.18v.78c0,.12-.54,.51-1.43,.51h-.33v-5.05c-1.28,.57-2.7,1.05-4.23,1.39l-.1-.18c2.18-.88,4.2-2.11,5.86-3.53-.21,.01-.44-.03-.68-.16-.24-.7-.81-1.48-1.4-2.05-1.01,.75-2.11,1.39-3.27,1.83l-.11-.15c1.96-1.3,3.89-3.72,4.76-5.9l2.44,.69c-.06,.16-.18,.23-.6,.19-.24,.35-.51,.72-.81,1.07h3.04l1.13-1.03,1.73,1.6c-.12,.18-.29,.22-.69,.25-1.22,1.96-2.97,3.68-5.21,5.01l.12,.04h4.8l.87-.92,1.76,1.33Zm-7.91-5.87c-.48,.51-1.01,1.01-1.57,1.48,1.91,.26,2.5,1.2,2.38,1.86,1.07-1.04,1.94-2.17,2.58-3.34h-3.39Zm5.44,9.73v-3.85h-5.18v3.85h5.18Z"/><path class="h" d="M45.12,34.76c0,3.68-2.45,5.71-5.2,5.71s-5.21-1.98-5.21-5.71,2.48-5.7,5.21-5.7,5.2,1.99,5.2,5.7Zm-5.2,5.11c2.02,0,2.97-2.26,2.97-5.11s-.95-5.1-2.97-5.1-2.95,2.29-2.95,5.1,.93,5.11,2.95,5.11Z"/><path class="h" d="M58.16,39.68v.51h-4.61v-.51l1.21-.12-2.68-4.88-1.33,1.57c0,1,0,2.12,.03,3.3l1.33,.13v.51h-4.83v-.51l1.43-.13c.03-1.45,.03-2.93,.03-4.42v-.72c0-1.46,0-2.94-.03-4.42l-1.43-.13v-.53h4.96v.53l-1.45,.15c-.03,1.45-.03,2.93-.03,4.41v1.04l4.4-5.39-1.45-.21v-.53h3.87v.53l-1.57,.21-2.62,3.08,3.64,6.45,1.13,.1Z"/></g></g></g></g></g></svg>