<?xml version="1.0" encoding="UTF-8"?><svg xmlns="http://www.w3.org/2000/svg" viewBox="0 0 73.78 47.84"><defs><style>.d{fill:#ed3b2b;}</style></defs><g id="a"/><g id="b"><g id="c"><g><path class="d" d="M15.6,22.3c6.37,.91,12.42,5.33,12.42,12.35,0,8.19-7.87,13.2-15.41,13.2-5.14,0-12.61-2.15-12.61-8.58,0-2.15,.98-4.29,3.38-4.29s3.57,1.69,3.57,3.84c0,.84-.32,1.82-.32,2.67,0,3.06,3.51,4.23,5.98,4.23,6.44,0,8.58-6.37,8.58-11.77,0-4.36-1.82-10.34-7.09-10.34-1.56,0-2.99,.59-4.49,.59-1.17,0-2.28-.52-2.28-1.82,0-1.37,1.17-1.89,2.47-1.89,1.43,0,2.73,.52,3.9,.52,4.03,0,5.92-6.05,5.92-9.23,0-4.23-1.95-9.62-6.89-9.62-2.54,0-5.59,1.5-5.59,4.29,0,1.04,.26,2.08,.26,3.12,0,1.89-1.36,3.51-3.31,3.51-2.08,0-3.64-1.82-3.64-3.77C.46,2.93,7.93,0,13.13,0c6.5,0,13.07,4.1,13.07,11.18,0,5.46-5.59,9.75-10.6,11.05v.07Z"/><path class="d" d="M39.38,24.86c.56,.68,1.6,1.52,2.68,1.52,.52,0,1.16-.12,2.44-.76,4.76-2.04,10.8-5.92,17.36-5.92,7.36,0,11.92,4.96,11.92,10.28s-3.2,8.6-7.28,10.76c-4.32,2.32-11.4,2.8-17.28,2.36l-.12-.92c5.56-.64,9.88-1.52,14-4,3.48-1.96,5.76-4.84,5.76-8.84s-2.56-7.44-7.12-7.44c-5.28,0-11.12,5.16-13.4,6.96-2.16,1.72-3.04,2.84-4.52,2.84-1.64,0-4.04-1.84-4.68-3.56-.4-.96-.32-2.12-.32-3l.56-.28Z"/></g></g></g></svg>