<?xml version="1.0" encoding="UTF-8"?><svg xmlns="http://www.w3.org/2000/svg" viewBox="0 0 21.03 21.96"><defs><style>.d{fill:#ed3b2b;}</style></defs><g id="a"/><g id="b"><g id="c"><path class="d" d="M11.95,0l5.28,15.78c.38,1.13,1.13,3.54,1.92,4.38,.49,.55,1.16,.75,1.88,.84v.96H12.5v-.96c.99-.09,2.81,.2,2.81-1.31,0-.46-.32-1.42-.49-1.86l-1.19-3.57H6.24l-.38,1.1c-.29,.84-1.16,3.1-1.16,3.95,0,1.48,1.54,1.68,2.73,1.68v.96H0v-.96c2.49-.03,3.28-2.44,3.94-4.44L9.22,.73l2.73-.73Zm-1.97,3.19l-3.28,9.75h6.53L9.98,3.19Z"/></g></g></svg>