<?xml version="1.0" encoding="UTF-8"?><svg xmlns="http://www.w3.org/2000/svg" viewBox="0 0 518 550.38"><defs><style>.d{fill:none;}.e{fill:#fff;}</style></defs><g id="a"/><g id="b"><g id="c"><g><path class="e" d="M518,550.38V.38h-19.82V13.68c1.72,.78,2.93,2.5,2.93,4.52,0,2.74-2.23,4.97-4.98,4.97s-4.98-2.22-4.98-4.97c0-2.01,1.2-3.74,2.93-4.52V.38h-18.76V13.68c1.72,.78,2.93,2.5,2.93,4.52,0,2.74-2.23,4.97-4.98,4.97s-4.98-2.22-4.98-4.97c0-2.01,1.21-3.74,2.93-4.52V.38h-18.76V13.68c1.72,.78,2.93,2.5,2.93,4.52,0,2.74-2.23,4.97-4.98,4.97s-4.98-2.22-4.98-4.97c0-2.01,1.2-3.74,2.93-4.52V.38h-18.76V13.68c1.72,.78,2.93,2.5,2.93,4.52,0,2.74-2.23,4.97-4.98,4.97s-4.98-2.22-4.98-4.97c0-2.01,1.21-3.74,2.93-4.52V.38h-18.76V13.68c1.72,.78,2.93,2.5,2.93,4.52,0,2.74-2.23,4.97-4.98,4.97s-4.98-2.22-4.98-4.97c0-2.01,1.21-3.74,2.93-4.52V.38h-18.76V13.68c1.72,.78,2.93,2.5,2.93,4.52,0,2.74-2.23,4.97-4.98,4.97s-4.98-2.22-4.98-4.97c0-2.01,1.21-3.74,2.93-4.52V.38h-18.76V13.68c1.72,.78,2.93,2.5,2.93,4.52,0,2.74-2.23,4.97-4.98,4.97s-4.98-2.22-4.98-4.97c0-2.01,1.21-3.74,2.93-4.52V.38h-18.76V13.68c1.72,.78,2.93,2.5,2.93,4.52,0,2.74-2.23,4.97-4.98,4.97s-4.98-2.22-4.98-4.97c0-2.01,1.21-3.74,2.93-4.52V.38h-15.68V13.68c1.72,.78,2.93,2.5,2.93,4.52,0,2.74-2.23,4.97-4.98,4.97s-4.98-2.22-4.98-4.97c0-2.01,1.21-3.74,2.93-4.52V.38h-18.76V13.68c1.72,.78,2.93,2.5,2.93,4.52,0,2.74-2.23,4.97-4.98,4.97s-4.98-2.22-4.98-4.97c0-2.01,1.21-3.74,2.93-4.52V.38h-18.76V13.68c1.72,.78,2.93,2.5,2.93,4.52,0,2.74-2.23,4.97-4.98,4.97s-4.98-2.22-4.98-4.97c0-2.01,1.21-3.74,2.93-4.52V.38h-18.76V13.68c1.72,.78,2.93,2.5,2.93,4.52,0,2.74-2.23,4.97-4.98,4.97s-4.98-2.22-4.98-4.97c0-2.01,1.21-3.74,2.93-4.52V.38h-18.76V13.68c1.72,.78,2.93,2.5,2.93,4.52,0,2.74-2.23,4.97-4.98,4.97s-4.98-2.22-4.98-4.97c0-2.01,1.21-3.74,2.93-4.52V.38h-18.76V13.68c1.73,.78,2.93,2.5,2.93,4.52,0,2.74-2.23,4.97-4.98,4.97s-4.98-2.22-4.98-4.97c0-2.01,1.21-3.74,2.93-4.52V.38h-18.76V13.68c1.72,.78,2.93,2.5,2.93,4.52,0,2.74-2.23,4.97-4.98,4.97s-4.98-2.22-4.98-4.97c0-2.01,1.2-3.74,2.93-4.52V.38h-18.76V13.68c1.72,.78,2.93,2.5,2.93,4.52,0,2.74-2.23,4.97-4.98,4.97s-4.98-2.22-4.98-4.97c0-2.01,1.21-3.74,2.93-4.52V.38h-18.76V13.68c1.72,.78,2.93,2.5,2.93,4.52,0,2.74-2.23,4.97-4.98,4.97s-4.98-2.22-4.98-4.97c0-2.01,1.2-3.74,2.93-4.52V.38h-18.76V13.68c1.72,.78,2.93,2.5,2.93,4.52,0,2.74-2.23,4.97-4.98,4.97s-4.98-2.22-4.98-4.97c0-2.01,1.21-3.74,2.93-4.52V.38h-18.76V13.68c1.72,.78,2.93,2.5,2.93,4.52,0,2.74-2.23,4.97-4.98,4.97s-4.98-2.22-4.98-4.97c0-2.01,1.21-3.74,2.93-4.52V.38h-18.76V13.68c1.72,.78,2.93,2.5,2.93,4.52,0,2.74-2.23,4.97-4.98,4.97s-4.98-2.22-4.98-4.97c0-2.01,1.21-3.74,2.93-4.52V.38h-18.76V13.68c1.72,.78,2.93,2.5,2.93,4.52,0,2.74-2.23,4.97-4.98,4.97s-4.98-2.22-4.98-4.97c0-2.01,1.21-3.74,2.93-4.52V.38H21.35V13.68c1.72,.78,2.93,2.5,2.93,4.52,0,2.74-2.23,4.97-4.98,4.97s-4.98-2.22-4.98-4.97c0-2.01,1.21-3.74,2.93-4.52V.38H0V550.38H518Z"/><path class="d" d="M291.47,13.32c-1.72,.78-2.93,2.51-2.93,4.52,0,2.75,2.23,4.97,4.97,4.97s4.97-2.23,4.97-4.97c0-2.02-1.2-3.74-2.93-4.52V0h18.75"/><path class="d" d="M268.63,13.32c-1.72,.78-2.93,2.51-2.93,4.52,0,2.75,2.23,4.97,4.97,4.97s4.97-2.23,4.97-4.97c0-2.02-1.2-3.74-2.93-4.52V0h18.75"/><path class="d" d="M245.79,13.32c-1.72,.78-2.93,2.51-2.93,4.52,0,2.75,2.23,4.97,4.97,4.97s4.97-2.23,4.97-4.97c0-2.02-1.2-3.74-2.93-4.52V0h18.75"/><path class="d" d="M222.95,13.32c-1.72,.78-2.93,2.51-2.93,4.52,0,2.75,2.23,4.97,4.97,4.97s4.97-2.23,4.97-4.97c0-2.02-1.2-3.74-2.93-4.52V0h18.75"/><path class="d" d="M200.11,13.32c-1.72,.78-2.93,2.51-2.93,4.52,0,2.75,2.23,4.97,4.97,4.97s4.97-2.23,4.97-4.97c0-2.02-1.2-3.74-2.93-4.52V0h18.75"/><path class="d" d="M177.27,13.32c-1.72,.78-2.93,2.51-2.93,4.52,0,2.75,2.23,4.97,4.97,4.97s4.97-2.23,4.97-4.97c0-2.02-1.2-3.74-2.93-4.52V0h18.75"/><path class="d" d="M154.43,13.32c-1.72,.78-2.93,2.51-2.93,4.52,0,2.75,2.23,4.97,4.97,4.97s4.97-2.23,4.97-4.97c0-2.02-1.2-3.74-2.93-4.52V0h18.75"/><path class="d" d="M131.59,13.32c-1.72,.78-2.93,2.51-2.93,4.52,0,2.75,2.23,4.97,4.97,4.97s4.97-2.23,4.97-4.97c0-2.02-1.2-3.74-2.93-4.52V0h18.75"/><path class="d" d="M108.75,13.32c-1.72,.78-2.93,2.51-2.93,4.52,0,2.75,2.23,4.97,4.97,4.97s4.97-2.23,4.97-4.97c0-2.02-1.2-3.74-2.93-4.52V0h18.75"/><path class="d" d="M85.91,13.32c-1.72,.78-2.93,2.51-2.93,4.52,0,2.75,2.23,4.97,4.97,4.97s4.97-2.23,4.97-4.97c0-2.02-1.2-3.74-2.93-4.52V0h18.75"/><path class="d" d="M63.07,13.32c-1.72,.78-2.93,2.51-2.93,4.52,0,2.75,2.23,4.97,4.97,4.97s4.97-2.23,4.97-4.97c0-2.02-1.2-3.74-2.93-4.52V0h18.75"/><path class="d" d="M40.23,13.32c-1.72,.78-2.93,2.51-2.93,4.52,0,2.75,2.23,4.97,4.97,4.97s4.97-2.23,4.97-4.97c0-2.02-1.2-3.74-2.93-4.52V0h18.75"/><path class="d" d="M17.39,13.32c-1.72,.78-2.93,2.51-2.93,4.52,0,2.75,2.23,4.97,4.97,4.97s4.97-2.23,4.97-4.97c0-2.02-1.2-3.74-2.93-4.52V0h18.75"/></g></g></g></svg>