<?xml version="1.0" encoding="UTF-8"?><svg xmlns="http://www.w3.org/2000/svg" viewBox="0 0 193.52 20.62"><defs><style>.d{fill:#0067ab;}.e{fill:#ed3b2b;}.f{fill:#1a1a1a;}</style></defs><g id="a"/><g id="b"><g id="c"><g><path class="e" d="M17.23,5.94c0,.46-.15,.78-.44,.95s-.65,.26-1.05,.26h-5.18c0,1.63,0,3.26,0,4.89,0,1.63,.01,3.26,.01,4.89,0,.64-.2,1.14-.59,1.52-.39,.38-.9,.56-1.54,.56-.28,0-.56-.06-.87-.17-.3-.12-.58-.24-.82-.37-.06-.03-.18-.1-.38-.22-.2-.12-.4-.25-.63-.4-.22-.15-.42-.29-.58-.42-.16-.13-.24-.22-.24-.28,0-.1,.05-.15,.15-.15,.03,0,.05,0,.08,.01,.02,0,.04,.01,.05,.01,.3,.09,.64,.17,1.01,.25,.37,.08,.71,.12,1.03,.12,.29,0,.49-.1,.61-.29s.17-.42,.17-.68V7.16H1.84v-1h6.2V2.41h2.54v3.75h3.99s-.02-.09-.02-.17c0-.33,.15-.63,.44-.89,.3-.26,.6-.39,.92-.39s.62,.13,.9,.38c.28,.25,.42,.54,.42,.86Z"/><path class="e" d="M40.35,8.91c0,.25-.09,.5-.28,.75-.19,.25-.38,.45-.59,.6-.72,.51-1.54,.89-2.44,1.14-.9,.25-1.8,.38-2.68,.38-.77,0-1.53-.06-2.28-.18-.75-.12-1.5-.26-2.26-.42-.46-.1-.93-.17-1.41-.21-.48-.04-.95-.05-1.41-.05-.87,0-1.73,.05-2.59,.15-.86,.1-1.72,.22-2.57,.37l-.11-2.1c1.04-.16,2.08-.29,3.11-.39,1.03-.1,2.08-.15,3.13-.15,.82,0,1.65,.07,2.47,.22,.82,.14,1.63,.3,2.43,.46,.65,.13,1.3,.26,1.96,.39,.66,.13,1.32,.2,1.98,.2,.3,0,.65-.03,1.04-.1,.39-.07,.71-.19,.95-.38-.13-.04-.25-.13-.36-.27-.11-.14-.16-.28-.16-.42,0-.29,.1-.51,.3-.67,.2-.16,.44-.24,.72-.24s.51,.09,.72,.26c.2,.17,.3,.4,.3,.69Z"/><path class="e" d="M57.79,13.62c0,.1-.09,.22-.28,.36-.19,.14-.32,.24-.39,.29-.55,.42-1.06,.74-1.54,.97-.48,.22-1.06,.41-1.74,.55-1.36,.27-2.73,.5-4.11,.68-1.38,.18-2.76,.3-4.13,.36l-.59-1.78c.45-.13,.81-.28,1.09-.46s.55-.46,.79-.87c.48-.79,.9-1.67,1.26-2.63,.36-.96,.68-1.88,.95-2.76,.29-.85,.55-1.72,.78-2.59,.23-.87,.45-1.75,.65-2.63l2.86,.67c-.55,1.91-1.3,3.79-2.26,5.65-.95,1.86-1.97,3.63-3.04,5.3,.97-.03,1.93-.09,2.9-.17,.96-.09,1.92-.2,2.87-.35,.71-.12,1.38-.25,2.02-.41,.09-.03,.25-.08,.5-.15,.25-.07,.48-.14,.72-.21,.23-.07,.37-.1,.41-.1,.17,0,.26,.09,.26,.28Zm2.78,2.58c0,.45-.13,.79-.38,1.03-.25,.24-.6,.36-1.05,.36-.29,0-.58-.1-.87-.3-.29-.2-.43-.46-.43-.78,0-.23,.08-.43,.24-.61,.16-.17,.35-.31,.59-.4,.23-.09,.45-.11,.65-.05-.29-.69-.71-1.38-1.27-2.06-.56-.68-1.15-1.33-1.79-1.94-.64-.61-1.24-1.17-1.8-1.66l2.06-1.54c.48,.48,.96,1.03,1.44,1.66,.48,.63,.92,1.29,1.31,2,.39,.7,.71,1.42,.94,2.16,.24,.74,.36,1.45,.36,2.15Z"/><path class="e" d="M83.14,17.17c0,.4-.14,.71-.43,.92s-.62,.31-1,.31c-.25,0-.54-.04-.89-.12-.35-.08-.64-.17-.87-.27-.68-.29-1.34-.72-1.97-1.28s-1.23-1.17-1.78-1.83c-.55-.66-1.06-1.27-1.54-1.83-.36,.54-.79,1.07-1.28,1.59-.49,.53-.99,.99-1.5,1.4-.4,.32-.84,.62-1.32,.91-.48,.29-.95,.56-1.43,.8-.45,.23-.91,.41-1.38,.53s-.96,.18-1.46,.18c-.29,0-.55-.12-.79-.36-.24-.24-.36-.5-.36-.79,0-.33,.13-.64,.39-.91,.26-.27,.56-.41,.91-.41s.66,.14,.9,.41c.24,.27,.38,.58,.42,.91,.74-.33,1.43-.82,2.07-1.47,.64-.65,1.2-1.29,1.68-1.93,.59-.79,1.13-1.69,1.63-2.68,.49-.99,.92-2.01,1.28-3.06,.36-1.05,.63-2.06,.8-3.03h-7.22v-1.13h10.52c-.23,1.1-.55,2.17-.94,3.22-.4,1.05-.86,2.06-1.4,3.05,.32,.71,.71,1.48,1.16,2.32,.45,.84,.95,1.65,1.5,2.43s1.09,1.45,1.64,2c.1-.27,.27-.52,.52-.73,.25-.21,.51-.31,.8-.31,.38,0,.69,.09,.95,.26,.26,.17,.39,.47,.39,.89Zm-1.5-13.16s-.02,.09-.05,.15c-.04,.06-.08,.09-.14,.09-.17,0-.44-.07-.79-.22-.35-.14-.71-.3-1.07-.46-.36-.16-.66-.26-.89-.3-.04-.01-.1-.04-.16-.07-.06-.03-.1-.07-.1-.13,0-.07,.08-.21,.24-.42,.16-.21,.34-.4,.53-.59,.19-.18,.33-.27,.4-.27,.16,0,.35,.09,.57,.26s.45,.38,.67,.63c.22,.25,.41,.49,.56,.74,.15,.25,.23,.44,.23,.59Zm2.13-1.58s-.02,.09-.06,.15c-.04,.06-.09,.09-.15,.09-.09,0-.28-.07-.57-.21-.3-.14-.59-.28-.89-.43-.3-.15-.51-.26-.64-.31-.04-.03-.14-.07-.28-.12-.14-.05-.28-.11-.41-.17-.13-.07-.19-.12-.19-.16,0-.09,.08-.23,.25-.43,.17-.2,.35-.39,.54-.56,.2-.17,.34-.26,.42-.26,.16,0,.35,.09,.57,.28,.22,.19,.44,.42,.66,.7s.4,.55,.54,.81c.14,.26,.22,.47,.22,.63Z"/><path class="d" d="M106.51,7.03c0,.35-.14,.64-.42,.89-.28,.25-.63,.45-1.04,.61-.41,.16-.82,.27-1.24,.35-.41,.07-.75,.11-1.01,.11-.39,0-.81-.03-1.27-.08-.46-.05-.89-.15-1.31-.3-.42-.15-.76-.38-1.03-.68-.27-.3-.4-.71-.4-1.21V2.73h-3.99v2.8h-1.82s.02,.04,.02,.09c0,.29-.08,.51-.25,.67-.17,.16-.39,.24-.68,.24h-1.24v2.8c.06-.03,.18-.09,.37-.17s.39-.18,.62-.28c.22-.1,.43-.19,.61-.26,.18-.07,.28-.11,.29-.11,.09,0,.13,.04,.13,.13,0,.12-.08,.29-.25,.51-.17,.22-.37,.46-.61,.7-.24,.25-.47,.47-.68,.68-.22,.21-.38,.36-.48,.44v5.53c0,.59-.04,1.15-.11,1.68-.07,.53-.27,.95-.6,1.28s-.86,.49-1.62,.49c-.55,0-1.07-.13-1.57-.4-.5-.27-.95-.58-1.36-.94-.01-.03-.04-.05-.08-.08s-.05-.05-.05-.1,.02-.07,.06-.09c.04-.01,.08-.02,.11-.02s.05,0,.08,.01c.02,0,.04,.01,.05,.01,.25,.04,.48,.08,.72,.12,.23,.04,.47,.05,.72,.05,.37,0,.65-.09,.81-.28,.17-.19,.27-.43,.32-.72,.04-.29,.06-.58,.06-.87v-4.25c-.32,.23-.64,.46-.98,.69-.33,.23-.68,.43-1.04,.61l-1.15-2.26c.52-.2,1.05-.4,1.58-.6,.53-.2,1.06-.39,1.58-.6v-3.73h-2.45v-.93h2.45V.89h2.45V5.59h.28c.03-.23,.14-.43,.33-.6,.19-.17,.4-.25,.63-.25h.17c.06,0,.11,.01,.17,.04V1.78h13.64s.09,.01,.14,.04c.05,.03,.08,.07,.08,.13,0,.25-.11,.57-.33,.99-.22,.41-.49,.83-.83,1.25-.34,.42-.68,.77-1.03,1.06-.35,.29-.65,.43-.91,.43-.2,0-.3-.12-.3-.35,0-.43,.05-.87,.14-1.3,.09-.43,.15-.87,.18-1.3h-1.91v3.64c0,.54,.12,.93,.37,1.19,.25,.26,.64,.39,1.17,.39,.25,0,.53-.01,.86-.04,.33-.03,.6-.09,.84-.17-.12-.1-.22-.21-.32-.34-.09-.12-.14-.26-.14-.42,0-.33,.13-.6,.4-.81,.27-.21,.55-.31,.86-.31s.6,.11,.83,.34c.24,.22,.36,.5,.36,.83Zm.13,10.99c0,.25-.12,.47-.37,.66-.25,.2-.48,.29-.72,.29-.22,0-.47-.05-.76-.15-.29-.1-.53-.2-.72-.3-.58-.33-1.12-.75-1.63-1.26-.51-.51-.97-1.05-1.4-1.64s-.82-1.15-1.18-1.7v6.16h-2.47v-6.12c-.42,.78-.92,1.52-1.5,2.22-.58,.7-1.24,1.3-2,1.81-.16,.12-.41,.27-.75,.46-.34,.19-.68,.36-1.03,.51-.35,.15-.62,.23-.8,.23-.04,0-.09-.01-.14-.03-.05-.02-.08-.06-.08-.12,0-.04,.03-.11,.09-.2,.03-.03,.05-.05,.08-.08l.05-.05c.78-.78,1.51-1.71,2.18-2.79,.67-1.08,1.17-2.14,1.48-3.2l2.41,.93v-1.3h-4.92v-1h4.92v-2.32h2.47v2.32h3.21c.01-.36,.13-.68,.36-.95,.22-.27,.52-.41,.9-.41,.33,0,.63,.12,.89,.36,.26,.24,.39,.52,.39,.86s-.12,.61-.35,.82c-.23,.22-.51,.33-.85,.33h-4.55v1.28c.38-.16,.75-.31,1.12-.46,.37-.14,.73-.31,1.09-.5,.17,.45,.4,.98,.67,1.59,.28,.61,.58,1.21,.9,1.8,.33,.59,.64,1.05,.94,1.4,.12-.16,.26-.29,.43-.4,.17-.11,.36-.16,.54-.16,.29,0,.54,.11,.75,.34,.21,.22,.32,.48,.32,.77Zm-8.11-13.94c-.25,.84-.63,1.66-1.16,2.46-.53,.8-1.16,1.5-1.89,2.1-.73,.6-1.54,1.02-2.42,1.27-.01,0-.03,0-.05,.01-.02,0-.05,.01-.08,.01-.04,0-.09-.01-.14-.03-.05-.02-.08-.06-.08-.12,0-.07,.02-.13,.05-.17,.04-.04,.08-.09,.12-.13,.61-.65,1.11-1.29,1.51-1.92,.4-.63,.72-1.29,.96-2,.25-.7,.45-1.49,.61-2.35l2.56,.87Z"/><path class="d" d="M115.04,1.73c-.25,.61-.57,1.27-.98,1.98-.4,.72-.83,1.41-1.29,2.09-.45,.68-.91,1.26-1.36,1.73h1.17v11.69h-2.47V9.04c-.12,.12-.3,.27-.55,.47s-.53,.39-.82,.6c-.3,.2-.58,.37-.85,.51-.27,.14-.48,.21-.64,.21-.12,0-.17-.05-.17-.15,0-.06,.03-.13,.09-.22,.39-.51,.77-1.02,1.13-1.53,.36-.51,.7-1.05,1.02-1.62,.59-1.04,1.13-2.13,1.6-3.25,.48-1.13,.87-2.27,1.17-3.43l2.95,1.11Zm4.71,15.42c0,.1-.04,.18-.13,.24-.32,.26-.76,.54-1.32,.82-.56,.29-1.17,.56-1.81,.82-.64,.26-1.27,.47-1.86,.63-.6,.16-1.11,.24-1.53,.24-.06,0-.12-.01-.17-.04-.06-.03-.09-.07-.09-.13,0-.09,.03-.15,.1-.2,.06-.04,.13-.08,.18-.11,.88-.51,1.7-1.08,2.46-1.71s1.45-1.35,2.07-2.15c.07,.04,.22,.14,.44,.29,.22,.15,.46,.31,.72,.49s.47,.34,.66,.49c.19,.15,.28,.26,.28,.31Zm7.7-14.4c0,.4-.13,.69-.38,.87s-.57,.26-.94,.26h-4.68v1.89h4.55v6.77c0,.75-.18,1.34-.53,1.77-.36,.43-.82,.73-1.39,.9-.57,.17-1.18,.26-1.83,.26h-7.27V5.77h3.9V.54h2.56V2.88h3.53c.01-.35,.13-.65,.36-.9,.22-.25,.52-.38,.88-.38,.3,0,.59,.11,.84,.33,.26,.22,.39,.49,.39,.82Zm-4.12,4.01h-5.98v2h3.4c.09-.58,.43-.87,1.02-.87,.25,0,.48,.08,.69,.25,.22,.17,.33,.38,.33,.64,0,.27-.1,.5-.3,.66-.2,.17-.43,.25-.69,.25h-4.44v1.76h3.4c.09-.58,.43-.87,1.02-.87,.25,0,.48,.09,.69,.26s.33,.39,.33,.65c0,.27-.1,.49-.3,.65-.2,.16-.43,.24-.69,.24h-4.44v2.06h4.6c.51,0,.86-.16,1.07-.49,.21-.33,.31-.71,.31-1.16V6.77Zm4.86,12.4c0,.29-.15,.52-.44,.68-.3,.17-.57,.25-.81,.25-.32,0-.7-.08-1.15-.23-.45-.15-.91-.35-1.39-.59s-.93-.48-1.36-.73c-.43-.25-.77-.46-1.03-.65-.04-.04-.14-.12-.29-.24-.15-.12-.3-.23-.43-.36-.14-.12-.21-.21-.21-.25,0-.07,.09-.18,.27-.33,.18-.14,.4-.3,.65-.47,.25-.17,.49-.32,.7-.46,.22-.14,.36-.23,.43-.29,.37,.61,.82,1.19,1.32,1.75,.51,.56,1.03,1.07,1.56,1.53,.1-.2,.24-.37,.42-.51s.39-.21,.62-.21c.32,0,.59,.1,.8,.3,.22,.2,.33,.46,.33,.78Z"/><path class="f" d="M150.1,12.58c0,.39-.12,.68-.37,.88s-.56,.29-.93,.29h-2.34c0,.87-.13,1.5-.4,1.89-.27,.39-.66,.64-1.17,.74-.51,.1-1.15,.15-1.9,.15h-2.43c0,.55,0,1.07-.02,1.56-.01,.49-.09,.93-.24,1.31-.14,.38-.4,.68-.77,.9s-.91,.33-1.62,.33c-.4,0-.86-.11-1.36-.34-.5-.22-.98-.5-1.43-.81-.46-.32-.83-.61-1.12-.89-.06-.06-.09-.11-.09-.15,0-.07,.04-.11,.13-.11,.01,0,.03,0,.04,.01,.01,0,.03,.01,.04,.01,.46,.12,.94,.22,1.42,.3,.48,.09,.97,.13,1.46,.13,.36,0,.6-.14,.73-.41,.12-.27,.19-.59,.2-.94,0-.35,.01-.65,.01-.9h-5.88v-.98h5.88v-1.8h-8.65v-1h8.65v-1.6h-5.96v-.98h5.96v-1.37h-5.36v-3.79h5.36v-1.21h-8.26v-1h8.22V.43h2.69V2.8h6.07c.01-.4,.14-.74,.38-1.02,.24-.27,.56-.41,.97-.41,.33,0,.64,.12,.93,.35,.29,.23,.43,.53,.43,.89s-.11,.65-.34,.87c-.22,.22-.52,.33-.88,.33h-7.63v1.21h5.73v1.97c0,.46-.11,.82-.34,1.07-.22,.25-.51,.43-.86,.53-.35,.1-.72,.16-1.1,.18-.39,.02-.76,.03-1.11,.03h-2.32v1.37h5.92v2.58h1.02c.03-.36,.17-.68,.42-.97s.56-.42,.92-.42c.3,0,.59,.12,.87,.37,.28,.25,.41,.53,.41,.85Zm-12.14-4.64v-2.02h-2.8v2.02h2.8Zm5.57-2.02h-2.99v2.02h2.28c.32,0,.52-.13,.6-.38,.08-.25,.12-.5,.12-.75v-.89Zm.19,6.83v-1.6h-3.19v1.6h3.19Zm-3.19,1v1.8h2.02c.36,0,.62-.09,.78-.28,.16-.19,.26-.42,.31-.69,.05-.27,.08-.55,.08-.82h-3.19Z"/><path class="f" d="M160.99,7.61c-.06,.36-.2,.74-.41,1.13-.22,.39-.47,.76-.75,1.1-.28,.34-.57,.62-.86,.83-.1,.07-.26,.18-.48,.31-.22,.14-.39,.21-.52,.21-.04,0-.09,0-.15-.01-.06,0-.09-.04-.09-.1,0-.1,.02-.2,.05-.3,.04-.1,.06-.2,.08-.28,.07-.33,.14-.66,.22-.99s.14-.65,.2-.99h-.87c0,1.42,0,2.84,0,4.27s.01,2.86,.01,4.27c0,.48-.07,.95-.21,1.41-.14,.46-.37,.85-.69,1.15-.33,.3-.78,.46-1.36,.46-.23,0-.53-.12-.89-.35-.36-.23-.71-.49-1.05-.77-.34-.28-.6-.5-.79-.66-.01-.03-.05-.06-.1-.1-.05-.04-.08-.08-.08-.12,0-.06,.05-.09,.15-.09,.01,0,.03,0,.05,.01,.02,0,.04,.01,.05,.01,.29,.07,.57,.14,.85,.21,.27,.07,.56,.1,.87,.1,.25,0,.43-.07,.54-.22,.12-.14,.17-.33,.17-.56v-4.66c-.25,.39-.58,.82-.99,1.29-.41,.47-.85,.91-1.31,1.31-.46,.4-.9,.72-1.3,.95-.09,.06-.21,.13-.36,.22-.15,.09-.29,.13-.4,.13-.15,0-.22-.06-.22-.17,0-.07,.03-.14,.08-.2,.05-.06,.1-.12,.14-.17,.11-.14,.22-.3,.33-.46,.1-.16,.2-.31,.3-.46,.58-.94,1.09-1.96,1.55-3.07s.79-2.19,1.01-3.26l1.17,.3v-.78h-3.8v-.91h4.77c-.56-.48-1.14-.93-1.74-1.36-.59-.43-1.21-.83-1.84-1.2,.07-.07,.18-.18,.34-.34,.15-.15,.32-.32,.51-.5,.19-.18,.36-.33,.52-.46,.16-.12,.28-.18,.35-.18,.13,0,.3,.1,.52,.3,.22,.2,.43,.42,.64,.65,.21,.23,.36,.4,.44,.5,.29-.35,.54-.72,.76-1.11,.22-.39,.41-.79,.59-1.19h-5.59V1.69h9.07c-.12,.62-.39,1.22-.84,1.79-.44,.57-.95,1.08-1.54,1.52-.59,.44-1.16,.78-1.72,1.01,.1,.14,.23,.36,.38,.65,.15,.29,.23,.52,.23,.69,0,.12-.04,.2-.11,.26h4.1Zm10.78,3.06c0,.25-.1,.46-.29,.64-.2,.18-.42,.27-.66,.27-.65,0-1.32-.1-2.02-.29s-1.36-.46-2.01-.78c-.64-.33-1.23-.68-1.75-1.05-.23,.16-.46,.31-.69,.44-.23,.14-.47,.27-.72,.4l2.25,.3c-.06,.35-.11,.69-.16,1.04-.05,.35-.12,.69-.21,1.04h4.29c-.03,.93-.1,1.86-.21,2.8-.11,.94-.31,1.86-.6,2.75-.17,.53-.44,.98-.81,1.34-.37,.36-.86,.54-1.46,.54-.43,0-.86-.15-1.27-.46-.41-.3-.78-.67-1.11-1.08-.33-.42-.59-.8-.79-1.15-.01-.01-.02-.04-.02-.07,0-.07,.04-.11,.13-.11,.04,0,.18,.08,.4,.24,.22,.16,.5,.32,.83,.48,.33,.16,.67,.24,1.02,.24,.23,0,.41-.09,.54-.26,.13-.17,.22-.35,.28-.54,.1-.3,.18-.69,.25-1.16,.06-.47,.12-.95,.16-1.43,.04-.48,.06-.89,.06-1.2h-2.02c-.23,.8-.57,1.58-1.02,2.35-.45,.77-.98,1.46-1.58,2.05-.54,.51-1.09,.9-1.67,1.17-.58,.27-1.22,.51-1.93,.69-.16,.04-.33,.08-.52,.12-.19,.04-.37,.05-.54,.05-.14,0-.22-.07-.22-.2,0-.07,.03-.13,.1-.17s.13-.07,.18-.09c.2-.12,.41-.23,.62-.34s.41-.23,.6-.36c.92-.65,1.64-1.43,2.16-2.33,.51-.9,.91-1.89,1.18-2.96h-3.4v-.93h3.66c.09-.35,.15-.7,.19-1.05,.04-.35,.08-.71,.11-1.07-1.14,.62-2.33,1.07-3.56,1.34-.17,.04-.35,.09-.53,.13-.18,.04-.36,.07-.53,.07-.06,0-.13-.02-.21-.05-.08-.04-.12-.09-.12-.16,0-.06,.02-.11,.08-.16,.05-.05,.1-.08,.14-.1,.22-.1,.43-.19,.65-.27,.22-.08,.43-.17,.65-.27,.69-.35,1.36-.74,2.01-1.19,.64-.45,1.24-.94,1.79-1.47-.38-.29-.73-.59-1.06-.91-.33-.32-.66-.65-.98-1l1.95-1.45c.2,.32,.43,.63,.67,.93,.25,.3,.49,.6,.74,.89,.29-.42,.54-.85,.76-1.3,.22-.45,.4-.91,.56-1.39h-2.8c-.17,.19-.41,.43-.73,.73-.31,.3-.65,.59-1.02,.88-.37,.29-.73,.53-1.09,.73s-.67,.29-.93,.29c-.14,0-.22-.07-.22-.2,0-.06,.06-.17,.17-.34,.11-.17,.24-.33,.37-.5,.13-.17,.22-.29,.26-.36,.54-.84,.99-1.72,1.37-2.63,.38-.92,.7-1.85,.98-2.79l2.93,.93c-.19,.4-.39,.8-.61,1.18-.22,.38-.45,.76-.72,1.12h4.18c.01-.35,.14-.64,.38-.88,.24-.24,.53-.36,.88-.36s.62,.11,.86,.31c.24,.21,.36,.48,.36,.81s-.11,.57-.34,.77-.5,.29-.81,.29h-2.54l1.82,.72c-.32,.68-.68,1.29-1.09,1.84-.4,.55-.88,1.08-1.43,1.6,.51,.42,1.05,.81,1.63,1.17,.58,.36,1.16,.69,1.76,.98,.06-.25,.19-.44,.39-.59,.2-.14,.42-.22,.65-.22,.25,0,.47,.11,.66,.31,.19,.21,.29,.43,.29,.66Z"/><path class="f" d="M182.11,9.52c0,.8-.15,1.39-.45,1.79-.3,.4-.72,.66-1.26,.79s-1.14,.2-1.82,.2h-1.91c-.1,1.4-.4,2.71-.9,3.91-.5,1.21-1.34,2.24-2.53,3.11-.1,.07-.26,.18-.47,.33-.21,.14-.38,.22-.51,.22-.06,0-.11-.02-.16-.05-.05-.04-.08-.08-.08-.14,0-.03,.03-.07,.09-.13,.03-.03,.06-.06,.09-.1,.03-.04,.06-.08,.09-.14,.11-.14,.23-.3,.34-.48s.18-.29,.21-.35c.25-.4,.44-.82,.6-1.25,.15-.43,.28-.86,.38-1.31,.19-.81,.31-1.62,.37-2.44,.06-.82,.09-1.64,.09-2.46s0-1.68-.02-2.52c-.01-.84-.02-1.68-.02-2.52h7.89v3.53Zm.39-7.35c0,.36-.12,.64-.37,.85-.25,.2-.54,.3-.89,.3h-7.92v-1h6.61c.03-.38,.15-.69,.38-.93,.22-.25,.52-.37,.9-.37,.33,0,.63,.11,.89,.33,.26,.22,.39,.49,.39,.82Zm-3.01,4.75h-2.69v2.19c0,.74-.01,1.47-.04,2.19,.29,0,.57,0,.84,.01,.28,0,.55,.01,.82,.01s.49-.09,.64-.26c.15-.17,.26-.38,.33-.62,.06-.24,.1-.47,.1-.68v-2.84Zm14.03,.69c0,.42-.14,.72-.43,.9-.29,.18-.62,.27-1,.27h-1.95v11.36h-2.6V8.78h-1.69c-.03,1.08-.11,2.14-.25,3.17-.14,1.03-.38,1.99-.73,2.9-.35,.9-.85,1.72-1.52,2.46-.67,.74-1.54,1.36-2.62,1.86-.1,.06-.24,.12-.4,.18-.17,.07-.31,.1-.42,.1-.04,0-.09-.02-.14-.05-.05-.04-.08-.08-.08-.14,0-.04,.05-.11,.15-.2,.1-.09,.21-.17,.33-.26,.11-.09,.19-.14,.22-.17,.11-.12,.24-.24,.37-.36,.13-.12,.25-.25,.35-.38,.72-.9,1.24-1.85,1.54-2.85,.3-1,.49-2.04,.55-3.11,.06-1.07,.1-2.15,.1-3.23,0-1.01,0-2.02-.03-3.04-.02-1.01-.05-2.02-.08-3.04,.3,.01,.61,.05,.91,.1,.3,.05,.6,.11,.89,.16,.82-.36,1.64-.75,2.45-1.17,.81-.42,1.61-.85,2.39-1.3,.1,.06,.28,.17,.53,.35,.25,.17,.52,.36,.8,.56,.28,.2,.52,.39,.73,.57,.2,.18,.3,.31,.3,.4,0,.13-.07,.23-.2,.3-.16,.09-.43,.17-.82,.25-.39,.08-.84,.16-1.36,.23-.51,.07-1.03,.14-1.55,.2-.52,.06-.99,.11-1.42,.14-.43,.04-.75,.06-.97,.08V7.85h4.92c.01-.42,.14-.78,.37-1.07,.23-.3,.56-.44,1-.44,.38,0,.7,.11,.97,.34,.27,.22,.4,.54,.4,.94Z"/><g><path class="f" d="M7.16,8.95s.37,2.24-1.58,4.88c-1.66,2.26-3.87,2.59-5.04,1.58-1.17-1.01-.22-2.78,.75-2.63,0,0-1.4,.94-.19,1.69,1.2,.75,1.57-1.5,1.77-2.59s1.24-4.47,4.29-2.93Z"/><path class="f" d="M11.58,8.93s-.37,2.24,1.58,4.88c1.66,2.26,3.87,2.59,5.04,1.58,1.17-1.01,.22-2.78-.75-2.63,0,0,1.4,.94,.19,1.69-1.2,.75-1.57-1.5-1.77-2.59s-1.24-4.47-4.29-2.93Z"/></g></g></g></g></svg>