<?xml version="1.0" encoding="UTF-8"?><svg xmlns="http://www.w3.org/2000/svg" xmlns:xlink="http://www.w3.org/1999/xlink" viewBox="0 0 164.16 132.47"><defs><style>.f{opacity:.1;}.g{fill:#0067ab;}.h{filter:url(#d);}</style><filter id="d" filterUnits="userSpaceOnUse"><feOffset dx="2" dy="2"/><feGaussianBlur result="e" stdDeviation="2"/><feFlood flood-color="#606060" flood-opacity=".3"/><feComposite in2="e" operator="in"/><feComposite in="SourceGraphic"/></filter></defs><g id="a"/><g id="b"><g id="c"><g class="h"><g class="f"><path class="g" d="M70.92,22.86c7.02,12.96,9.72,27.54,9.72,42.12s-2.52,28.44-8.28,41.04c-5.94,12.6-16.74,26.46-32.04,26.46s-24.66-11.88-30.96-24.3C2.7,95.22,0,80.64,0,66.24S2.7,37.26,8.64,25.02C14.94,12.78,25.38,0,40.32,0c13.86,0,24.12,11.34,30.6,22.86ZM40.32,5.94c-21.42,0-23.22,46.08-23.22,60.84,0,15.84,1.62,59.76,24.3,59.76,18.36,0,22.32-41.58,22.14-60.84,0-14.58-2.16-59.76-23.22-59.76Z"/><path class="g" d="M140.4,0V97.74c0,9.9,0,17.1,3.78,21.42,4.86,5.4,13.5,5.4,19.98,5.4v5.94H100.08v-5.94c5.76,0,14.94,0,18.9-3.42,5.58-4.68,5.58-13.86,5.58-23.4V46.98c0-5.4,0-15.84-2.52-20.52-2.16-3.96-8.64-5.04-23.04-5.04v-5.94c13.14,.54,27.54-4.5,35.82-15.48h5.58Z"/></g></g></g></g></svg>