<?xml version="1.0" encoding="UTF-8"?><svg xmlns="http://www.w3.org/2000/svg" xmlns:xlink="http://www.w3.org/1999/xlink" viewBox="0 0 167.4 132.47"><defs><style>.f{fill:#fff;}.g{filter:url(#d);}.h{opacity:.15;}</style><filter id="d" filterUnits="userSpaceOnUse"><feOffset dx="2" dy="2"/><feGaussianBlur result="e" stdDeviation="2"/><feFlood flood-color="#606060" flood-opacity=".3"/><feComposite in2="e" operator="in"/><feComposite in="SourceGraphic"/></filter></defs><g id="a"/><g id="b"><g id="c"><g class="g"><g class="h"><path class="f" d="M70.92,22.86c7.02,12.96,9.72,27.54,9.72,42.12s-2.52,28.44-8.28,41.04c-5.94,12.6-16.74,26.46-32.04,26.46s-24.66-11.88-30.96-24.3C2.7,95.22,0,80.64,0,66.24S2.7,37.26,8.64,25.02C14.94,12.78,25.38,0,40.32,0c13.86,0,24.12,11.34,30.6,22.86ZM40.32,5.94c-21.42,0-23.22,46.08-23.22,60.84,0,15.84,1.62,59.76,24.3,59.76,18.36,0,22.32-41.58,22.14-60.84,0-14.58-2.16-59.76-23.22-59.76Z"/><path class="f" d="M90.36,130.5l-1.08-8.28c9.9-18.54,23.94-33.66,37.98-48.96,10.62-11.34,21.96-25.02,21.96-41.4,0-13.14-8.82-25.92-22.68-25.92-8.46,0-18,5.04-18,14.22,0,5.94,4.86,9,4.86,14.94,0,5.04-4.32,9.54-9.54,9.54-7.2,0-11.16-6.48-11.16-13.32C92.7,12.42,111.96,0,129.24,0c18.54,0,38.16,12.78,38.16,32.94,0,18.54-14.22,31.14-27.36,41.76-19.98,15.66-24.3,20.52-38.16,41.76h17.64c11.16,0,20.88,0,27.36-2.34,5.58-2.16,10.44-7.92,14.94-18.72l5.22,1.44-7.92,33.66H90.36Z"/></g></g></g></g></svg>