<?xml version="1.0" encoding="UTF-8"?><svg xmlns="http://www.w3.org/2000/svg" viewBox="0 0 167.4 132.47"><defs><style>.d{opacity:.1;}.e{fill:#0067ab;}</style></defs><g id="a"/><g id="b"><g id="c"><g class="d"><path class="e" d="M70.92,22.86c7.02,12.96,9.72,27.54,9.72,42.12s-2.52,28.44-8.28,41.04c-5.94,12.6-16.74,26.46-32.04,26.46s-24.66-11.88-30.96-24.3C2.7,95.22,0,80.64,0,66.24S2.7,37.26,8.64,25.02C14.94,12.78,25.38,0,40.32,0c13.86,0,24.12,11.34,30.6,22.86ZM40.32,5.94c-21.42,0-23.22,46.08-23.22,60.84,0,15.84,1.62,59.76,24.3,59.76,18.36,0,22.32-41.58,22.14-60.84,0-14.58-2.16-59.76-23.22-59.76Z"/><path class="e" d="M133.02,61.74c17.64,2.52,34.38,14.76,34.38,34.2,0,22.68-21.78,36.54-42.66,36.54-14.22,0-34.92-5.94-34.92-23.76,0-5.94,2.7-11.88,9.36-11.88s9.9,4.68,9.9,10.62c0,2.34-.9,5.04-.9,7.38,0,8.46,9.72,11.7,16.56,11.7,17.82,0,23.76-17.64,23.76-32.58,0-12.06-5.04-28.62-19.62-28.62-4.32,0-8.28,1.62-12.42,1.62-3.24,0-6.3-1.44-6.3-5.04,0-3.78,3.24-5.22,6.84-5.22,3.96,0,7.56,1.44,10.8,1.44,11.16,0,16.38-16.74,16.38-25.56,0-11.7-5.4-26.64-19.08-26.64-7.02,0-15.48,4.14-15.48,11.88,0,2.88,.72,5.76,.72,8.64,0,5.22-3.78,9.72-9.18,9.72-5.76,0-10.08-5.04-10.08-10.44C91.08,8.1,111.78,0,126.18,0c18,0,36.18,11.34,36.18,30.96,0,15.12-15.48,27-29.34,30.6v.18Z"/></g></g></g></svg>