<?xml version="1.0" encoding="UTF-8"?><svg xmlns="http://www.w3.org/2000/svg" viewBox="0 0 19.49 25.09"><defs><style>.d{fill:#0067ab;}</style></defs><g id="a"/><g id="b"><g id="c"><path class="d" d="M19.49,23.5c-1.04,.81-2.41,1.6-3.8,1.6-2.03,0-3.19-1.86-3.74-3.57-.41,.12-.81,.2-1.25,.26-.43,.06-.87,.09-1.33,.09C3.57,21.87,0,16.62,0,11.2S3.22,0,9.37,0s9.49,5.42,9.49,10.99c0,3.92-1.33,7.11-4.5,9.46,.41,1.22,1.86,2.87,3.19,2.87,.49,0,1.07-.2,1.54-.44l.41,.61Zm-3.97-12.39c0-3.92-1.13-10.15-6.15-10.15S3.34,7.37,3.34,11.11c0,2.18,.35,4.82,1.42,6.73,.26-1.57,1.6-2.32,3.1-2.32,2.21,0,4.24,1.68,5.37,3.48,1.77-1.89,2.29-5.42,2.29-7.89Zm-7.66,5.37c-1.04,0-2.15,.67-2.15,1.83,0,1.71,2.09,2.61,3.54,2.61,.78,0,1.57-.12,2.26-.46-.46-1.77-1.54-3.97-3.66-3.97Z"/></g></g></svg>