<?xml version="1.0" encoding="UTF-8"?><svg xmlns="http://www.w3.org/2000/svg" viewBox="0 0 39.38 39.38"><defs><style>.d{fill:#1a1a1a;}</style></defs><g id="a"/><g id="b"><g id="c"><path class="d" d="M37.21,27.08c-2.69,0-5.29-.44-7.72-1.23-.77-.26-1.62-.07-2.21,.53l-3.43,4.31c-6.19-2.95-11.99-8.53-15.07-14.94l4.27-3.63c.59-.61,.77-1.47,.53-2.23-.81-2.43-1.23-5.03-1.23-7.72,0-1.18-.98-2.17-2.17-2.17H2.6C1.42,0,0,.53,0,2.17,0,22.49,16.91,39.38,37.21,39.38c1.55,0,2.17-1.38,2.17-2.58v-7.55c0-1.18-.98-2.17-2.17-2.17Z"/></g></g></svg>