<?xml version="1.0" encoding="UTF-8"?><svg xmlns="http://www.w3.org/2000/svg" xmlns:xlink="http://www.w3.org/1999/xlink" viewBox="0 0 87.64 67.19"><defs><style>.f{fill:#ed3b2b;}.g{fill:#fff;}.h{fill:#1a1a1a;}.i{filter:url(#d);}</style><filter id="d" filterUnits="userSpaceOnUse"><feOffset dx="0" dy="4.38"/><feGaussianBlur result="e" stdDeviation="5.84"/><feFlood flood-color="#282828" flood-opacity=".3"/><feComposite in2="e" operator="in"/><feComposite in="SourceGraphic"/></filter></defs><g id="a"/><g id="b"><g id="c"><g class="i"><g><rect class="f" x="0" width="87.64" height="35.06"/><path class="f" d="M85.45,31.31v33.69H2.19V31.31H85.45m2.19-2.19H0v38.07H87.64V29.12h0Z"/><g><path class="g" d="M20.75,22.99v2.12H11.14v-1.56c1.16-1.26,2.32-2.48,3.3-3.48,2.26-2.36,3.16-3.82,3.16-5.78,0-1.84-.96-3.04-2.58-3.04-.3,0-.62,.04-.94,.12l-.48,1.84c-.22,1.18-.76,1.52-1.34,1.52-.54,0-.96-.3-1.18-.76,.24-2.24,2.34-3.44,4.8-3.44,3.02,0,4.4,1.6,4.4,3.86,0,1.98-1.44,3.66-5.04,6.44-.64,.5-1.58,1.32-2.56,2.16h8.06Z"/><path class="g" d="M33.89,21.35h-2.26v3.76h-2.38v-3.76h-5.88v-1.42l6.44-9.18h1.82v8.84h2.26v1.76Zm-4.64-1.76v-6.78l-4.78,6.78h4.78Z"/><path class="g" d="M43.81,10.65c-.12,.18-.42,.34-.8,.44v12.22c-.02,.16-1.06,.66-1.86,.66h-.34v-1.4h-1.82v1.68c0,.16-.68,.68-1.78,.68h-.38V9.21l2.42,.92h1.36l1.06-1.18,2.14,1.7Zm-4.82,.06v5.26h1.82v-5.26h-1.82Zm1.82,11.3v-5.48h-1.82v5.48h1.82Zm6.6-7.14v-2.92h-3.62l-.16-.56h3.78v-3.12l3,.26c-.02,.28-.18,.48-.72,.56v2.3h1.52l1.18-1.58s1.32,1.08,2.12,1.82c-.06,.22-.26,.32-.54,.32h-4.28v2.92h2.02l1.24-1.66s1.4,1.12,2.22,1.9c-.06,.22-.26,.32-.54,.32h-11.32l-.16-.56h4.26Zm5.96,1.74s1.22,.98,1.92,1.66c-.04,.22-.26,.32-.54,.32h-2.66v5.64c0,1.58-.36,2.44-3.06,2.68-.06-.7-.18-1.22-.52-1.56-.34-.34-.8-.58-1.86-.76v-.26s2.26,.12,2.72,.12c.34,0,.44-.1,.44-.34v-5.52h-6.48l-.16-.56h6.64v-2.28l2.9,.26c-.02,.26-.22,.42-.62,.48v1.54h.28l1-1.42Zm-8.84,2.58c5.5,1.32,3.28,5.36,1.22,3.62-.08-1.2-.74-2.56-1.4-3.5l.18-.12Z"/><path class="g" d="M60.53,15.19v10.82c0,.3-.86,.88-1.9,.88h-.38V8.63l2.36,1.02h2.74l.98-1.08,2.08,1.58c-.12,.14-.36,.32-.72,.38v5.22c-.02,.14-1.1,.54-1.78,.54h-.36v-1.1h-3.02Zm0-4.96v1.9h3.02v-1.9h-3.02Zm3.02,4.4v-1.96h-3.02v1.96h3.02Zm12.1-4.44c-.14,.16-.4,.34-.82,.4v13.54c0,1.6-.32,2.52-2.86,2.74-.04-.76-.14-1.32-.38-1.66-.28-.34-.66-.6-1.54-.76v-.06c-.36,.18-1,.4-1.48,.4h-.38v-1.16h-3.46v.76c0,.2-.9,.66-1.8,.66h-.3v-8.36l2.18,.9h3.2l1-1.1,2.08,1.58c-.12,.14-.38,.3-.74,.36v5.74c.5,.04,1.5,.12,1.78,.12,.32,0,.4-.16,.4-.42V15.19h-3.12v.38c0,.2-.96,.7-1.88,.7h-.3v-7.52l2.26,.9h2.84l1.06-1.24,2.26,1.78Zm-10.92,7.94v2.14h3.46v-2.14h-3.46Zm3.46,4.94v-2.22h-3.46v2.22h3.46Zm1.22-12.84v1.9h3.12v-1.9h-3.12Zm3.12,4.4v-1.96h-3.12v1.96h3.12Z"/></g><g><path class="h" d="M23.61,56.71s1.54,1.18,2.5,2c-.06,.22-.28,.32-.58,.32H10.79v.84c0,.18-.72,.76-1.92,.76h-.42v-18.44l2.6,1.1h10.54l1.3-1.58s1.48,1.06,2.42,1.84c-.06,.22-.3,.32-.58,.32H10.79v5.88h4.26c.22-.52,.4-1.06,.56-1.58-.28,.06-.62,.1-1.08,.1h-.4v-1.3h-2.8l-.14-.58h2.94v-1.92l2.76,.24c-.04,.28-.2,.48-.68,.54v1.14h2.78v-1.92l2.74,.24c-.04,.26-.2,.48-.68,.54v1.14h.86l.96-1.24s1.12,.84,1.82,1.5c-.06,.22-.26,.32-.52,.32h-3.12v.8c0,.12-.5,.44-1.72,.44h-.34v-1.24h-2.78v.68l2.56,.44c-.06,.22-.22,.32-.76,.32-.2,.46-.42,.9-.68,1.34h4.04l1.2-1.52s1.38,1.04,2.18,1.76c-.06,.22-.28,.32-.56,.32h-7.2c-.38,.56-.8,1.1-1.24,1.6l.74,.28h3.5l1.02-1.08,2.16,1.58c-.12,.14-.38,.3-.74,.38v3.7c-.02,.12-1.16,.52-1.86,.52h-.38v-1.18h-3.96v.86c0,.16-.68,.66-1.82,.66h-.38v-4.18c-.8,.6-1.7,1.12-2.68,1.52l-.18-.18c1.54-1.06,2.8-2.66,3.64-4.48h-3.92l-.1-.36v8.52h11.42l1.4-1.76Zm-7.38-3.96v2.78h3.96v-2.78h-3.96Z"/><path class="h" d="M46.35,52.91c-.14,.18-.42,.36-.88,.46v6.34c-.02,.16-1.16,.68-2,.68h-.4v-1.64h-6.88v1.06c0,.16-.72,.7-1.9,.7h-.44v-6.9c-1.7,.78-3.58,1.44-5.62,1.9l-.14-.24c2.9-1.2,5.58-2.88,7.78-4.82-.28,.02-.58-.04-.9-.22-.32-.96-1.08-2.02-1.86-2.8-1.34,1.02-2.8,1.9-4.34,2.5l-.14-.2c2.6-1.78,5.16-5.08,6.32-8.06l3.24,.94c-.08,.22-.24,.32-.8,.26-.32,.48-.68,.98-1.08,1.46h4.04l1.5-1.4,2.3,2.18c-.16,.24-.38,.3-.92,.34-1.62,2.68-3.94,5.02-6.92,6.84l.16,.06h6.38l1.16-1.26,2.34,1.82Zm-10.5-8.02c-.64,.7-1.34,1.38-2.08,2.02,2.54,.36,3.32,1.64,3.16,2.54,1.42-1.42,2.58-2.96,3.42-4.56h-4.5Zm7.22,13.28v-5.26h-6.88v5.26h6.88Z"/><path class="h" d="M62.75,51.29c0,5.02-3.26,7.8-6.9,7.8s-6.92-2.7-6.92-7.8,3.3-7.78,6.92-7.78,6.9,2.72,6.9,7.78Zm-6.9,6.98c2.68,0,3.94-3.08,3.94-6.98s-1.26-6.96-3.94-6.96-3.92,3.12-3.92,6.96,1.24,6.98,3.92,6.98Z"/><path class="h" d="M80.07,58.01v.7h-6.12v-.7l1.6-.16-3.56-6.66-1.76,2.14c0,1.36,0,2.9,.04,4.5l1.76,.18v.7h-6.42v-.7l1.9-.18c.04-1.98,.04-4,.04-6.04v-.98c0-2,0-4.02-.04-6.04l-1.9-.18v-.72h6.58v.72l-1.92,.2c-.04,1.98-.04,4-.04,6.02v1.42l5.84-7.36-1.92-.28v-.72h5.14v.72l-2.08,.28-3.48,4.2,4.84,8.8,1.5,.14Z"/></g></g></g></g></g></svg>